{
	"patcher" : 	{
		"fileversion" : 1,
		"rect" : [ 38.0, 44.0, 1177.0, 869.0 ],
		"bglocked" : 0,
		"defrect" : [ 38.0, 44.0, 1177.0, 869.0 ],
		"openrect" : [ 0.0, 0.0, 0.0, 0.0 ],
		"openinpresentation" : 0,
		"default_fontsize" : 12.0,
		"default_fontface" : 0,
		"default_fontname" : "Arial",
		"gridonopen" : 0,
		"gridsize" : [ 5.0, 5.0 ],
		"gridsnaponopen" : 0,
		"toolbarvisible" : 1,
		"boxanimatetime" : 200,
		"imprint" : 0,
		"metadata" : [  ],
		"boxes" : [ 			{
				"box" : 				{
					"maxclass" : "comment",
					"text" : "Beat within the measure",
					"linecount" : 2,
					"id" : "obj-136",
					"presentation_rect" : [ 106.0, 773.0, 0.0, 0.0 ],
					"frgb" : [ 0.0, 0.0, 0.0, 1.0 ],
					"fontname" : "Arial",
					"patching_rect" : [ 106.0, 773.0, 85.0, 34.0 ],
					"numinlets" : 1,
					"numoutlets" : 0,
					"fontsize" : 12.0
				}

			}
, 			{
				"box" : 				{
					"maxclass" : "comment",
					"text" : "Number of Seconds",
					"linecount" : 2,
					"id" : "obj-135",
					"frgb" : [ 0.0, 0.0, 0.0, 1.0 ],
					"fontname" : "Arial",
					"patching_rect" : [ 221.0, 705.0, 66.0, 34.0 ],
					"numinlets" : 1,
					"numoutlets" : 0,
					"fontsize" : 12.0
				}

			}
, 			{
				"box" : 				{
					"maxclass" : "comment",
					"text" : "Just like metro, but keeps track of milliseconds",
					"linecount" : 2,
					"id" : "obj-133",
					"frgb" : [ 0.0, 0.0, 0.0, 1.0 ],
					"fontname" : "Arial",
					"patching_rect" : [ 55.0, 548.0, 150.0, 34.0 ],
					"numinlets" : 1,
					"numoutlets" : 0,
					"fontsize" : 12.0
				}

			}
, 			{
				"box" : 				{
					"maxclass" : "comment",
					"text" : "using a message box with a list to set pitch velocity duration",
					"linecount" : 2,
					"id" : "obj-130",
					"frgb" : [ 0.0, 0.0, 0.0, 1.0 ],
					"fontname" : "Arial",
					"patching_rect" : [ 313.0, 346.0, 176.0, 34.0 ],
					"numinlets" : 1,
					"numoutlets" : 0,
					"fontsize" : 12.0
				}

			}
, 			{
				"box" : 				{
					"maxclass" : "comment",
					"text" : "Random jitter to simulate human error",
					"linecount" : 2,
					"id" : "obj-124",
					"frgb" : [ 0.0, 0.0, 0.0, 1.0 ],
					"fontname" : "Arial",
					"patching_rect" : [ 63.0, 167.0, 126.0, 34.0 ],
					"numinlets" : 1,
					"numoutlets" : 0,
					"fontsize" : 12.0
				}

			}
, 			{
				"box" : 				{
					"maxclass" : "comment",
					"text" : "You can set the duration for the next bang",
					"linecount" : 2,
					"id" : "obj-120",
					"frgb" : [ 0.0, 0.0, 0.0, 1.0 ],
					"fontname" : "Arial",
					"patching_rect" : [ 91.0, 59.0, 146.0, 34.0 ],
					"numinlets" : 1,
					"numoutlets" : 0,
					"fontsize" : 12.0
				}

			}
, 			{
				"box" : 				{
					"maxclass" : "comment",
					"text" : "Metro",
					"id" : "obj-115",
					"frgb" : [ 0.0, 0.0, 0.0, 1.0 ],
					"fontname" : "Arial",
					"patching_rect" : [ 42.0, 50.0, 43.0, 20.0 ],
					"numinlets" : 1,
					"numoutlets" : 0,
					"fontsize" : 12.0
				}

			}
, 			{
				"box" : 				{
					"maxclass" : "comment",
					"text" : "Pipe delays a stream of numbers",
					"id" : "obj-107",
					"frgb" : [ 0.0, 0.0, 0.0, 1.0 ],
					"fontname" : "Arial",
					"patching_rect" : [ 836.0, 160.0, 186.0, 20.0 ],
					"numinlets" : 1,
					"numoutlets" : 0,
					"fontsize" : 12.0
				}

			}
, 			{
				"box" : 				{
					"maxclass" : "comment",
					"text" : "Can store a number to trigger later",
					"linecount" : 2,
					"id" : "obj-100",
					"frgb" : [ 0.0, 0.0, 0.0, 1.0 ],
					"fontname" : "Arial",
					"patching_rect" : [ 705.0, 319.0, 118.0, 34.0 ],
					"numinlets" : 1,
					"numoutlets" : 0,
					"fontsize" : 12.0
				}

			}
, 			{
				"box" : 				{
					"maxclass" : "comment",
					"text" : "A new bang will replace the old one",
					"linecount" : 2,
					"id" : "obj-94",
					"frgb" : [ 0.0, 0.0, 0.0, 1.0 ],
					"fontname" : "Arial",
					"patching_rect" : [ 638.0, 157.0, 112.0, 34.0 ],
					"numinlets" : 1,
					"numoutlets" : 0,
					"fontsize" : 12.0
				}

			}
, 			{
				"box" : 				{
					"maxclass" : "comment",
					"text" : "Delays a bang",
					"id" : "obj-90",
					"frgb" : [ 0.0, 0.0, 0.0, 1.0 ],
					"fontname" : "Arial",
					"patching_rect" : [ 735.0, 270.0, 88.0, 20.0 ],
					"numinlets" : 1,
					"numoutlets" : 0,
					"fontsize" : 12.0
				}

			}
, 			{
				"box" : 				{
					"maxclass" : "comment",
					"text" : "floating point argument for floating point ramp",
					"linecount" : 2,
					"id" : "obj-74",
					"presentation_rect" : [ 916.0, 602.629639, 0.0, 0.0 ],
					"frgb" : [ 0.0, 0.0, 0.0, 1.0 ],
					"fontname" : "Arial",
					"patching_rect" : [ 910.0, 602.629639, 132.0, 34.0 ],
					"numinlets" : 1,
					"numoutlets" : 0,
					"fontsize" : 12.0
				}

			}
, 			{
				"box" : 				{
					"maxclass" : "comment",
					"text" : "Alternate ramping to 1. and 0.",
					"id" : "obj-67",
					"presentation_rect" : [ 987.0, 572.0, 0.0, 0.0 ],
					"frgb" : [ 0.0, 0.0, 0.0, 1.0 ],
					"fontname" : "Arial",
					"patching_rect" : [ 984.0, 572.629639, 170.0, 20.0 ],
					"numinlets" : 1,
					"numoutlets" : 0,
					"fontsize" : 12.0
				}

			}
, 			{
				"box" : 				{
					"maxclass" : "comment",
					"text" : "Change toggle for the next ramp",
					"linecount" : 2,
					"id" : "obj-65",
					"frgb" : [ 0.0, 0.0, 0.0, 1.0 ],
					"fontname" : "Arial",
					"patching_rect" : [ 1002.0, 528.0, 105.0, 34.0 ],
					"numinlets" : 1,
					"numoutlets" : 0,
					"fontsize" : 12.0
				}

			}
, 			{
				"box" : 				{
					"maxclass" : "comment",
					"text" : "Toggle routing left or right",
					"linecount" : 2,
					"id" : "obj-61",
					"frgb" : [ 0.0, 0.0, 0.0, 1.0 ],
					"fontname" : "Arial",
					"patching_rect" : [ 829.0, 450.0, 90.0, 34.0 ],
					"numinlets" : 1,
					"numoutlets" : 0,
					"fontsize" : 12.0
				}

			}
, 			{
				"box" : 				{
					"maxclass" : "comment",
					"text" : "Trigger duration with destination",
					"id" : "obj-50",
					"frgb" : [ 0.0, 0.0, 0.0, 1.0 ],
					"fontname" : "Arial",
					"patching_rect" : [ 587.0, 459.0, 184.0, 20.0 ],
					"numinlets" : 1,
					"numoutlets" : 0,
					"fontsize" : 12.0
				}

			}
, 			{
				"box" : 				{
					"maxclass" : "comment",
					"text" : "Line creates a ramp",
					"id" : "obj-44",
					"frgb" : [ 0.0, 0.0, 0.0, 1.0 ],
					"fontname" : "Arial",
					"patching_rect" : [ 356.0, 451.0, 170.0, 27.0 ],
					"numinlets" : 1,
					"numoutlets" : 0,
					"fontsize" : 18.0
				}

			}
, 			{
				"box" : 				{
					"maxclass" : "comment",
					"text" : "Can be used to count by decimal units",
					"linecount" : 3,
					"id" : "obj-27",
					"frgb" : [ 0.0, 0.0, 0.0, 1.0 ],
					"fontname" : "Arial",
					"patching_rect" : [ 429.0, 667.0, 86.0, 48.0 ],
					"numinlets" : 1,
					"numoutlets" : 0,
					"fontsize" : 12.0
				}

			}
, 			{
				"box" : 				{
					"maxclass" : "comment",
					"text" : "destination duration",
					"id" : "obj-20",
					"frgb" : [ 0.0, 0.0, 0.0, 1.0 ],
					"fontname" : "Arial",
					"patching_rect" : [ 419.0, 486.0, 115.0, 20.0 ],
					"numinlets" : 1,
					"numoutlets" : 0,
					"fontsize" : 12.0
				}

			}
, 			{
				"box" : 				{
					"maxclass" : "comment",
					"text" : "Destination of Ramp",
					"id" : "obj-18",
					"frgb" : [ 0.0, 0.0, 0.0, 1.0 ],
					"fontname" : "Arial",
					"patching_rect" : [ 431.0, 525.0, 123.0, 20.0 ],
					"numinlets" : 1,
					"numoutlets" : 0,
					"fontsize" : 12.0
				}

			}
, 			{
				"box" : 				{
					"maxclass" : "comment",
					"text" : "duration of ramp",
					"id" : "obj-13",
					"frgb" : [ 0.0, 0.0, 0.0, 1.0 ],
					"fontname" : "Arial",
					"patching_rect" : [ 441.0, 551.0, 100.0, 20.0 ],
					"numinlets" : 1,
					"numoutlets" : 0,
					"fontsize" : 12.0
				}

			}
, 			{
				"box" : 				{
					"maxclass" : "comment",
					"text" : "Loadbang - Automate events on Patch Loading",
					"id" : "obj-8",
					"frgb" : [ 0.0, 0.0, 0.0, 1.0 ],
					"fontname" : "Arial",
					"patching_rect" : [ 612.0, 15.0, 403.0, 27.0 ],
					"numinlets" : 1,
					"numoutlets" : 0,
					"fontsize" : 18.0
				}

			}
, 			{
				"box" : 				{
					"maxclass" : "newobj",
					"text" : "pgmout",
					"id" : "obj-127",
					"fontname" : "Arial",
					"patching_rect" : [ 697.650391, 795.354675, 51.0, 20.0 ],
					"numinlets" : 2,
					"numoutlets" : 0,
					"fontsize" : 12.0
				}

			}
, 			{
				"box" : 				{
					"maxclass" : "message",
					"text" : "0",
					"outlettype" : [ "" ],
					"id" : "obj-126",
					"fontname" : "Arial",
					"patching_rect" : [ 945.374023, 533.041199, 32.5, 18.0 ],
					"numinlets" : 2,
					"numoutlets" : 1,
					"fontsize" : 12.0
				}

			}
, 			{
				"box" : 				{
					"maxclass" : "message",
					"text" : "1",
					"outlettype" : [ "" ],
					"id" : "obj-125",
					"fontname" : "Arial",
					"patching_rect" : [ 905.935242, 533.041199, 32.5, 18.0 ],
					"numinlets" : 2,
					"numoutlets" : 1,
					"fontsize" : 12.0
				}

			}
, 			{
				"box" : 				{
					"maxclass" : "gswitch2",
					"outlettype" : [ "", "" ],
					"id" : "obj-123",
					"patching_rect" : [ 918.67865, 490.39386, 39.0, 32.0 ],
					"numinlets" : 2,
					"numoutlets" : 2
				}

			}
, 			{
				"box" : 				{
					"maxclass" : "toggle",
					"outlettype" : [ "int" ],
					"id" : "obj-122",
					"patching_rect" : [ 919.256226, 458.067444, 20.0, 20.0 ],
					"numinlets" : 1,
					"numoutlets" : 1
				}

			}
, 			{
				"box" : 				{
					"maxclass" : "message",
					"text" : "0. 1000",
					"outlettype" : [ "" ],
					"id" : "obj-119",
					"fontname" : "Arial",
					"patching_rect" : [ 918.143738, 572.629639, 51.0, 18.0 ],
					"numinlets" : 2,
					"numoutlets" : 1,
					"fontsize" : 12.0
				}

			}
, 			{
				"box" : 				{
					"maxclass" : "button",
					"outlettype" : [ "bang" ],
					"id" : "obj-118",
					"patching_rect" : [ 877.346802, 628.084839, 20.0, 20.0 ],
					"numinlets" : 1,
					"numoutlets" : 1
				}

			}
, 			{
				"box" : 				{
					"maxclass" : "flonum",
					"outlettype" : [ "float", "bang" ],
					"id" : "obj-116",
					"fontname" : "Arial",
					"patching_rect" : [ 377.913452, 698.580566, 50.0, 20.0 ],
					"numinlets" : 1,
					"numoutlets" : 2,
					"fontsize" : 12.0
				}

			}
, 			{
				"box" : 				{
					"maxclass" : "newobj",
					"text" : "* 0.5",
					"outlettype" : [ "float" ],
					"id" : "obj-114",
					"fontname" : "Arial",
					"patching_rect" : [ 377.913452, 665.724731, 35.0, 20.0 ],
					"numinlets" : 2,
					"numoutlets" : 1,
					"fontsize" : 12.0
				}

			}
, 			{
				"box" : 				{
					"maxclass" : "message",
					"text" : "1. 5000",
					"outlettype" : [ "" ],
					"id" : "obj-113",
					"fontname" : "Arial",
					"patching_rect" : [ 864.287903, 572.629639, 51.0, 18.0 ],
					"numinlets" : 2,
					"numoutlets" : 1,
					"fontsize" : 12.0
				}

			}
, 			{
				"box" : 				{
					"maxclass" : "newobj",
					"text" : "line 0.",
					"outlettype" : [ "", "", "" ],
					"id" : "obj-111",
					"fontname" : "Arial",
					"patching_rect" : [ 863.918884, 601.966919, 46.0, 20.0 ],
					"numinlets" : 3,
					"numoutlets" : 3,
					"fontsize" : 12.0
				}

			}
, 			{
				"box" : 				{
					"maxclass" : "flonum",
					"outlettype" : [ "float", "bang" ],
					"id" : "obj-110",
					"fontname" : "Arial",
					"patching_rect" : [ 864.34137, 666.726746, 56.844975, 20.0 ],
					"numinlets" : 1,
					"numoutlets" : 2,
					"fontsize" : 12.0
				}

			}
, 			{
				"box" : 				{
					"maxclass" : "message",
					"text" : "127 1000",
					"outlettype" : [ "" ],
					"id" : "obj-108",
					"fontname" : "Arial",
					"patching_rect" : [ 354.694031, 487.755371, 61.0, 18.0 ],
					"numinlets" : 2,
					"numoutlets" : 1,
					"fontsize" : 12.0
				}

			}
, 			{
				"box" : 				{
					"maxclass" : "button",
					"outlettype" : [ "bang" ],
					"id" : "obj-106",
					"patching_rect" : [ 693.23645, 528.382935, 20.0, 20.0 ],
					"numinlets" : 1,
					"numoutlets" : 1
				}

			}
, 			{
				"box" : 				{
					"maxclass" : "number",
					"outlettype" : [ "int", "bang" ],
					"id" : "obj-104",
					"fontname" : "Arial",
					"patching_rect" : [ 686.124023, 496.067444, 50.0, 20.0 ],
					"numinlets" : 1,
					"numoutlets" : 2,
					"fontsize" : 12.0
				}

			}
, 			{
				"box" : 				{
					"maxclass" : "newobj",
					"text" : "+ 500",
					"outlettype" : [ "int" ],
					"id" : "obj-103",
					"fontname" : "Arial",
					"patching_rect" : [ 693.23645, 579.303223, 41.0, 20.0 ],
					"numinlets" : 2,
					"numoutlets" : 1,
					"fontsize" : 12.0
				}

			}
, 			{
				"box" : 				{
					"maxclass" : "newobj",
					"text" : "random 500",
					"outlettype" : [ "int" ],
					"id" : "obj-102",
					"fontname" : "Arial",
					"patching_rect" : [ 693.23645, 554.185303, 75.0, 20.0 ],
					"numinlets" : 2,
					"numoutlets" : 1,
					"fontsize" : 12.0
				}

			}
, 			{
				"box" : 				{
					"maxclass" : "message",
					"text" : "1000",
					"outlettype" : [ "" ],
					"id" : "obj-101",
					"fontname" : "Arial",
					"patching_rect" : [ 623.567261, 524.39386, 37.0, 18.0 ],
					"numinlets" : 2,
					"numoutlets" : 1,
					"fontsize" : 12.0
				}

			}
, 			{
				"box" : 				{
					"maxclass" : "number",
					"outlettype" : [ "int", "bang" ],
					"id" : "obj-96",
					"fontname" : "Arial",
					"patching_rect" : [ 610.085876, 496.067444, 50.0, 20.0 ],
					"numinlets" : 1,
					"numoutlets" : 2,
					"fontsize" : 12.0
				}

			}
, 			{
				"box" : 				{
					"maxclass" : "number",
					"outlettype" : [ "int", "bang" ],
					"id" : "obj-98",
					"fontname" : "Arial",
					"patching_rect" : [ 610.620789, 643.539001, 50.0, 20.0 ],
					"numinlets" : 1,
					"numoutlets" : 2,
					"fontsize" : 12.0
				}

			}
, 			{
				"box" : 				{
					"maxclass" : "newobj",
					"text" : "line 0",
					"outlettype" : [ "", "", "" ],
					"id" : "obj-99",
					"fontname" : "Arial",
					"patching_rect" : [ 610.216064, 613.927795, 46.0, 20.0 ],
					"numinlets" : 3,
					"numoutlets" : 3,
					"fontsize" : 12.0
				}

			}
, 			{
				"box" : 				{
					"maxclass" : "number",
					"outlettype" : [ "int", "bang" ],
					"id" : "obj-95",
					"fontname" : "Arial",
					"patching_rect" : [ 378.442871, 525.40271, 50.0, 20.0 ],
					"numinlets" : 1,
					"numoutlets" : 2,
					"fontsize" : 12.0
				}

			}
, 			{
				"box" : 				{
					"maxclass" : "number",
					"outlettype" : [ "int", "bang" ],
					"id" : "obj-93",
					"fontname" : "Arial",
					"patching_rect" : [ 391.448364, 551.360107, 50.0, 20.0 ],
					"numinlets" : 1,
					"numoutlets" : 2,
					"fontsize" : 12.0
				}

			}
, 			{
				"box" : 				{
					"maxclass" : "number",
					"outlettype" : [ "int", "bang" ],
					"id" : "obj-91",
					"fontname" : "Arial",
					"patching_rect" : [ 377.966919, 609.595947, 50.0, 20.0 ],
					"numinlets" : 1,
					"numoutlets" : 2,
					"fontsize" : 12.0
				}

			}
, 			{
				"box" : 				{
					"maxclass" : "number",
					"outlettype" : [ "int", "bang" ],
					"id" : "obj-89",
					"fontname" : "Arial",
					"patching_rect" : [ 45.489548, 782.116577, 58.21397, 20.0 ],
					"numinlets" : 1,
					"numoutlets" : 2,
					"fontsize" : 12.0
				}

			}
, 			{
				"box" : 				{
					"maxclass" : "newobj",
					"text" : "/ 250",
					"outlettype" : [ "int" ],
					"id" : "obj-88",
					"fontname" : "Arial",
					"patching_rect" : [ 45.912033, 754.736633, 37.0, 20.0 ],
					"numinlets" : 2,
					"numoutlets" : 1,
					"fontsize" : 12.0
				}

			}
, 			{
				"box" : 				{
					"maxclass" : "number",
					"outlettype" : [ "int", "bang" ],
					"id" : "obj-87",
					"fontname" : "Arial",
					"patching_rect" : [ 46.0616, 725.773804, 58.21397, 20.0 ],
					"numinlets" : 1,
					"numoutlets" : 2,
					"fontsize" : 12.0
				}

			}
, 			{
				"box" : 				{
					"maxclass" : "newobj",
					"text" : "% 1000",
					"outlettype" : [ "int" ],
					"id" : "obj-86",
					"fontname" : "Arial",
					"patching_rect" : [ 46.0616, 699.078369, 51.0, 20.0 ],
					"numinlets" : 2,
					"numoutlets" : 1,
					"fontsize" : 12.0
				}

			}
, 			{
				"box" : 				{
					"maxclass" : "number",
					"outlettype" : [ "int", "bang" ],
					"id" : "obj-85",
					"fontname" : "Arial",
					"patching_rect" : [ 161.003693, 725.506348, 58.21397, 20.0 ],
					"numinlets" : 1,
					"numoutlets" : 2,
					"fontsize" : 12.0
				}

			}
, 			{
				"box" : 				{
					"maxclass" : "newobj",
					"text" : "/ 1000",
					"outlettype" : [ "int" ],
					"id" : "obj-84",
					"fontname" : "Arial",
					"patching_rect" : [ 160.319183, 698.126465, 44.0, 20.0 ],
					"numinlets" : 2,
					"numoutlets" : 1,
					"fontsize" : 12.0
				}

			}
, 			{
				"box" : 				{
					"maxclass" : "number",
					"outlettype" : [ "int", "bang" ],
					"id" : "obj-83",
					"fontname" : "Arial",
					"patching_rect" : [ 86.446945, 644.318604, 91.069847, 20.0 ],
					"numinlets" : 1,
					"numoutlets" : 2,
					"fontsize" : 12.0
				}

			}
, 			{
				"box" : 				{
					"maxclass" : "toggle",
					"outlettype" : [ "int" ],
					"id" : "obj-81",
					"patching_rect" : [ 86.446945, 592.97583, 20.0, 20.0 ],
					"numinlets" : 1,
					"numoutlets" : 1
				}

			}
, 			{
				"box" : 				{
					"maxclass" : "button",
					"outlettype" : [ "bang" ],
					"id" : "obj-79",
					"patching_rect" : [ 862.798584, 302.82077, 20.0, 20.0 ],
					"numinlets" : 1,
					"numoutlets" : 1
				}

			}
, 			{
				"box" : 				{
					"maxclass" : "toggle",
					"outlettype" : [ "int" ],
					"id" : "obj-76",
					"patching_rect" : [ 850.830322, 188.236771, 20.0, 20.0 ],
					"numinlets" : 1,
					"numoutlets" : 1
				}

			}
, 			{
				"box" : 				{
					"maxclass" : "newobj",
					"text" : "metro 400",
					"outlettype" : [ "bang" ],
					"id" : "obj-77",
					"fontname" : "Arial",
					"patching_rect" : [ 850.830322, 218.354675, 65.0, 20.0 ],
					"numinlets" : 2,
					"numoutlets" : 1,
					"fontsize" : 12.0
				}

			}
, 			{
				"box" : 				{
					"maxclass" : "toggle",
					"outlettype" : [ "int" ],
					"id" : "obj-75",
					"patching_rect" : [ 615.363159, 161.065399, 20.0, 20.0 ],
					"numinlets" : 1,
					"numoutlets" : 1
				}

			}
, 			{
				"box" : 				{
					"maxclass" : "newobj",
					"text" : "metro 400",
					"outlettype" : [ "bang" ],
					"id" : "obj-73",
					"fontname" : "Arial",
					"patching_rect" : [ 615.363159, 191.183289, 65.0, 20.0 ],
					"numinlets" : 2,
					"numoutlets" : 1,
					"fontsize" : 12.0
				}

			}
, 			{
				"box" : 				{
					"maxclass" : "number",
					"outlettype" : [ "int", "bang" ],
					"id" : "obj-72",
					"fontname" : "Arial",
					"patching_rect" : [ 669.438477, 364.152649, 50.0, 20.0 ],
					"numinlets" : 1,
					"numoutlets" : 2,
					"fontsize" : 12.0
				}

			}
, 			{
				"box" : 				{
					"maxclass" : "number",
					"outlettype" : [ "int", "bang" ],
					"id" : "obj-71",
					"fontname" : "Arial",
					"patching_rect" : [ 730.465759, 209.552307, 50.0, 20.0 ],
					"numinlets" : 1,
					"numoutlets" : 2,
					"fontsize" : 12.0
				}

			}
, 			{
				"box" : 				{
					"maxclass" : "newobj",
					"text" : "i 0",
					"outlettype" : [ "int" ],
					"id" : "obj-70",
					"fontname" : "Arial",
					"patching_rect" : [ 669.438477, 327.189789, 32.5, 20.0 ],
					"numinlets" : 2,
					"numoutlets" : 1,
					"fontsize" : 12.0
				}

			}
, 			{
				"box" : 				{
					"maxclass" : "number",
					"outlettype" : [ "int", "bang" ],
					"id" : "obj-69",
					"fontname" : "Arial",
					"patching_rect" : [ 850.830322, 327.826233, 50.0, 20.0 ],
					"numinlets" : 1,
					"numoutlets" : 2,
					"fontsize" : 12.0
				}

			}
, 			{
				"box" : 				{
					"maxclass" : "number",
					"outlettype" : [ "int", "bang" ],
					"id" : "obj-68",
					"fontname" : "Arial",
					"patching_rect" : [ 850.830322, 246.793518, 50.0, 20.0 ],
					"numinlets" : 1,
					"numoutlets" : 2,
					"fontsize" : 12.0
				}

			}
, 			{
				"box" : 				{
					"maxclass" : "message",
					"text" : "Hello",
					"outlettype" : [ "" ],
					"id" : "obj-66",
					"fontname" : "Arial",
					"patching_rect" : [ 685.812927, 210.760803, 38.0, 18.0 ],
					"numinlets" : 2,
					"numoutlets" : 1,
					"fontsize" : 12.0
				}

			}
, 			{
				"box" : 				{
					"maxclass" : "button",
					"outlettype" : [ "bang" ],
					"id" : "obj-64",
					"patching_rect" : [ 669.438477, 241.878693, 20.0, 20.0 ],
					"numinlets" : 1,
					"numoutlets" : 1
				}

			}
, 			{
				"box" : 				{
					"maxclass" : "button",
					"outlettype" : [ "bang" ],
					"id" : "obj-62",
					"patching_rect" : [ 669.438477, 299.429962, 20.0, 20.0 ],
					"numinlets" : 1,
					"numoutlets" : 1
				}

			}
, 			{
				"box" : 				{
					"maxclass" : "toggle",
					"outlettype" : [ "int" ],
					"id" : "obj-57",
					"patching_rect" : [ 878.530151, 85.610214, 20.0, 20.0 ],
					"numinlets" : 1,
					"numoutlets" : 1
				}

			}
, 			{
				"box" : 				{
					"maxclass" : "newobj",
					"text" : "loadmess 1",
					"outlettype" : [ "" ],
					"id" : "obj-56",
					"fontname" : "Arial",
					"patching_rect" : [ 880.359131, 49.3046, 72.0, 20.0 ],
					"numinlets" : 1,
					"numoutlets" : 1,
					"fontsize" : 12.0
				}

			}
, 			{
				"box" : 				{
					"maxclass" : "newobj",
					"text" : "print",
					"id" : "obj-55",
					"fontname" : "Arial",
					"patching_rect" : [ 779.962463, 102.722649, 34.0, 20.0 ],
					"numinlets" : 1,
					"numoutlets" : 0,
					"fontsize" : 12.0
				}

			}
, 			{
				"box" : 				{
					"maxclass" : "message",
					"text" : "1",
					"outlettype" : [ "" ],
					"id" : "obj-54",
					"fontname" : "Arial",
					"patching_rect" : [ 698.507324, 87.663712, 32.5, 18.0 ],
					"numinlets" : 2,
					"numoutlets" : 1,
					"fontsize" : 12.0
				}

			}
, 			{
				"box" : 				{
					"maxclass" : "toggle",
					"outlettype" : [ "int" ],
					"id" : "obj-52",
					"patching_rect" : [ 698.507324, 109.567627, 20.0, 20.0 ],
					"numinlets" : 1,
					"numoutlets" : 1
				}

			}
, 			{
				"box" : 				{
					"maxclass" : "toggle",
					"outlettype" : [ "int" ],
					"id" : "obj-51",
					"patching_rect" : [ 666.335938, 82.187729, 20.0, 20.0 ],
					"numinlets" : 1,
					"numoutlets" : 1
				}

			}
, 			{
				"box" : 				{
					"maxclass" : "button",
					"outlettype" : [ "bang" ],
					"id" : "obj-49",
					"patching_rect" : [ 638.902527, 84.241226, 20.0, 20.0 ],
					"numinlets" : 1,
					"numoutlets" : 1
				}

			}
, 			{
				"box" : 				{
					"maxclass" : "message",
					"text" : "61 127 78.5",
					"outlettype" : [ "" ],
					"id" : "obj-47",
					"fontname" : "Arial",
					"patching_rect" : [ 274.542389, 304.505219, 79.743439, 18.0 ],
					"numinlets" : 2,
					"numoutlets" : 1,
					"fontsize" : 12.0
				}

			}
, 			{
				"box" : 				{
					"maxclass" : "message",
					"text" : "61 127 $1",
					"outlettype" : [ "" ],
					"id" : "obj-46",
					"fontname" : "Arial",
					"patching_rect" : [ 274.804413, 276.536896, 64.0, 18.0 ],
					"numinlets" : 2,
					"numoutlets" : 1,
					"fontsize" : 12.0
				}

			}
, 			{
				"box" : 				{
					"maxclass" : "number",
					"outlettype" : [ "int", "bang" ],
					"id" : "obj-45",
					"fontname" : "Arial",
					"patching_rect" : [ 244.816345, 339.136292, 50.0, 20.0 ],
					"numinlets" : 1,
					"numoutlets" : 2,
					"fontsize" : 12.0
				}

			}
, 			{
				"box" : 				{
					"maxclass" : "message",
					"text" : "61 127 $1",
					"outlettype" : [ "" ],
					"id" : "obj-43",
					"fontname" : "Arial",
					"patching_rect" : [ 244.76828, 365.25412, 64.0, 18.0 ],
					"numinlets" : 2,
					"numoutlets" : 1,
					"fontsize" : 12.0
				}

			}
, 			{
				"box" : 				{
					"maxclass" : "message",
					"text" : "61 127 1000",
					"outlettype" : [ "" ],
					"id" : "obj-42",
					"fontname" : "Arial",
					"patching_rect" : [ 242.030304, 420.013916, 77.0, 18.0 ],
					"numinlets" : 2,
					"numoutlets" : 1,
					"fontsize" : 12.0
				}

			}
, 			{
				"box" : 				{
					"maxclass" : "message",
					"text" : "61 127 100",
					"outlettype" : [ "" ],
					"id" : "obj-41",
					"fontname" : "Arial",
					"patching_rect" : [ 242.030304, 390.580536, 71.0, 18.0 ],
					"numinlets" : 2,
					"numoutlets" : 1,
					"fontsize" : 12.0
				}

			}
, 			{
				"box" : 				{
					"maxclass" : "newobj",
					"text" : "* 0.5",
					"outlettype" : [ "float" ],
					"id" : "obj-40",
					"fontname" : "Arial",
					"patching_rect" : [ 274.852448, 243.996597, 35.0, 20.0 ],
					"numinlets" : 2,
					"numoutlets" : 1,
					"fontsize" : 12.0
				}

			}
, 			{
				"box" : 				{
					"maxclass" : "number",
					"outlettype" : [ "int", "bang" ],
					"id" : "obj-32",
					"fontname" : "Arial",
					"patching_rect" : [ 331.189758, 141.209534, 50.0, 20.0 ],
					"numinlets" : 1,
					"numoutlets" : 2,
					"fontsize" : 12.0
				}

			}
, 			{
				"box" : 				{
					"maxclass" : "number",
					"outlettype" : [ "int", "bang" ],
					"id" : "obj-34",
					"fontname" : "Arial",
					"patching_rect" : [ 275.643921, 196.712738, 50.0, 20.0 ],
					"numinlets" : 1,
					"numoutlets" : 2,
					"fontsize" : 12.0
				}

			}
, 			{
				"box" : 				{
					"maxclass" : "newobj",
					"text" : "random 500",
					"outlettype" : [ "int" ],
					"id" : "obj-35",
					"fontname" : "Arial",
					"patching_rect" : [ 275.221436, 166.332855, 75.0, 20.0 ],
					"numinlets" : 2,
					"numoutlets" : 1,
					"fontsize" : 12.0
				}

			}
, 			{
				"box" : 				{
					"maxclass" : "flonum",
					"outlettype" : [ "float", "bang" ],
					"id" : "obj-36",
					"fontname" : "Arial",
					"patching_rect" : [ 329.071869, 72.765244, 50.0, 20.0 ],
					"numinlets" : 1,
					"numoutlets" : 2,
					"fontsize" : 12.0
				}

			}
, 			{
				"box" : 				{
					"maxclass" : "button",
					"outlettype" : [ "bang" ],
					"id" : "obj-37",
					"patching_rect" : [ 274.681061, 138.476974, 20.0, 20.0 ],
					"numinlets" : 1,
					"numoutlets" : 1
				}

			}
, 			{
				"box" : 				{
					"maxclass" : "toggle",
					"outlettype" : [ "int" ],
					"id" : "obj-38",
					"patching_rect" : [ 274.996582, 50.861332, 20.0, 20.0 ],
					"numinlets" : 1,
					"numoutlets" : 1
				}

			}
, 			{
				"box" : 				{
					"maxclass" : "newobj",
					"text" : "metro 100",
					"outlettype" : [ "bang" ],
					"id" : "obj-39",
					"fontname" : "Arial",
					"patching_rect" : [ 274.744446, 99.256554, 65.0, 20.0 ],
					"numinlets" : 2,
					"numoutlets" : 1,
					"fontsize" : 12.0
				}

			}
, 			{
				"box" : 				{
					"maxclass" : "comment",
					"text" : "humanization",
					"id" : "obj-30",
					"frgb" : [ 0.0, 0.0, 0.0, 1.0 ],
					"fontname" : "Arial",
					"patching_rect" : [ 95.573067, 257.867798, 80.0, 20.0 ],
					"numinlets" : 1,
					"numoutlets" : 0,
					"fontsize" : 12.0
				}

			}
, 			{
				"box" : 				{
					"maxclass" : "number",
					"outlettype" : [ "int", "bang" ],
					"id" : "obj-28",
					"fontname" : "Arial",
					"patching_rect" : [ 110.364555, 206.364563, 50.0, 20.0 ],
					"numinlets" : 1,
					"numoutlets" : 2,
					"fontsize" : 12.0
				}

			}
, 			{
				"box" : 				{
					"maxclass" : "newobj",
					"text" : "+ 200",
					"outlettype" : [ "int" ],
					"id" : "obj-26",
					"fontname" : "Arial",
					"patching_rect" : [ 54.396248, 257.814301, 41.0, 20.0 ],
					"numinlets" : 2,
					"numoutlets" : 1,
					"fontsize" : 12.0
				}

			}
, 			{
				"box" : 				{
					"maxclass" : "message",
					"text" : "61",
					"outlettype" : [ "" ],
					"id" : "obj-25",
					"fontname" : "Arial",
					"patching_rect" : [ 41.283817, 363.115479, 32.5, 18.0 ],
					"numinlets" : 2,
					"numoutlets" : 1,
					"fontsize" : 12.0
				}

			}
, 			{
				"box" : 				{
					"maxclass" : "newobj",
					"text" : "makenote 127 100",
					"outlettype" : [ "int", "int" ],
					"id" : "obj-23",
					"fontname" : "Arial",
					"patching_rect" : [ 40.647366, 449.233368, 110.0, 20.0 ],
					"numinlets" : 3,
					"numoutlets" : 2,
					"fontsize" : 12.0
				}

			}
, 			{
				"box" : 				{
					"maxclass" : "newobj",
					"text" : "noteout",
					"id" : "obj-22",
					"fontname" : "Arial",
					"patching_rect" : [ 41.069851, 475.725739, 201.0, 20.0 ],
					"numinlets" : 3,
					"numoutlets" : 0,
					"fontsize" : 12.0
				}

			}
, 			{
				"box" : 				{
					"maxclass" : "number",
					"outlettype" : [ "int", "bang" ],
					"id" : "obj-21",
					"fontname" : "Arial",
					"patching_rect" : [ 54.396248, 289.563171, 50.0, 20.0 ],
					"numinlets" : 1,
					"numoutlets" : 2,
					"fontsize" : 12.0
				}

			}
, 			{
				"box" : 				{
					"maxclass" : "newobj",
					"text" : "random 200",
					"outlettype" : [ "int" ],
					"id" : "obj-17",
					"fontname" : "Arial",
					"patching_rect" : [ 54.396248, 232.487885, 75.0, 20.0 ],
					"numinlets" : 2,
					"numoutlets" : 1,
					"fontsize" : 12.0
				}

			}
, 			{
				"box" : 				{
					"maxclass" : "flonum",
					"outlettype" : [ "float", "bang" ],
					"id" : "obj-16",
					"fontname" : "Arial",
					"patching_rect" : [ 87.246681, 102.920265, 50.0, 20.0 ],
					"numinlets" : 1,
					"numoutlets" : 2,
					"fontsize" : 12.0
				}

			}
, 			{
				"box" : 				{
					"maxclass" : "button",
					"outlettype" : [ "bang" ],
					"id" : "obj-14",
					"patching_rect" : [ 40.855869, 200.632004, 20.0, 20.0 ],
					"numinlets" : 1,
					"numoutlets" : 1
				}

			}
, 			{
				"box" : 				{
					"maxclass" : "toggle",
					"outlettype" : [ "int" ],
					"id" : "obj-12",
					"patching_rect" : [ 41.171375, 81.016357, 20.0, 20.0 ],
					"numinlets" : 1,
					"numoutlets" : 1
				}

			}
, 			{
				"box" : 				{
					"maxclass" : "newobj",
					"text" : "loadmess Hi!",
					"outlettype" : [ "" ],
					"id" : "obj-10",
					"fontname" : "Arial",
					"patching_rect" : [ 780.422485, 44.513119, 80.0, 20.0 ],
					"numinlets" : 1,
					"numoutlets" : 1,
					"fontsize" : 12.0
				}

			}
, 			{
				"box" : 				{
					"maxclass" : "newobj",
					"text" : "loadbang",
					"outlettype" : [ "bang" ],
					"id" : "obj-9",
					"fontname" : "Arial",
					"patching_rect" : [ 638.865784, 48.363544, 60.0, 20.0 ],
					"numinlets" : 1,
					"numoutlets" : 1,
					"fontsize" : 12.0
				}

			}
, 			{
				"box" : 				{
					"maxclass" : "newobj",
					"text" : "clocker 250",
					"outlettype" : [ "float" ],
					"id" : "obj-6",
					"fontname" : "Arial",
					"patching_rect" : [ 85.686172, 617.220459, 72.0, 20.0 ],
					"numinlets" : 2,
					"numoutlets" : 1,
					"fontsize" : 12.0
				}

			}
, 			{
				"box" : 				{
					"maxclass" : "newobj",
					"text" : "line 0",
					"outlettype" : [ "", "", "" ],
					"id" : "obj-5",
					"fontname" : "Arial",
					"patching_rect" : [ 377.562195, 579.98468, 46.0, 20.0 ],
					"numinlets" : 3,
					"numoutlets" : 3,
					"fontsize" : 12.0
				}

			}
, 			{
				"box" : 				{
					"maxclass" : "newobj",
					"text" : "counter",
					"outlettype" : [ "int", "", "", "int" ],
					"id" : "obj-4",
					"fontname" : "Arial",
					"patching_rect" : [ 535.772766, 787.759766, 73.0, 20.0 ],
					"numinlets" : 5,
					"numoutlets" : 4,
					"fontsize" : 12.0
				}

			}
, 			{
				"box" : 				{
					"maxclass" : "newobj",
					"text" : "pipe 500",
					"outlettype" : [ "" ],
					"id" : "obj-3",
					"fontname" : "Arial",
					"patching_rect" : [ 850.830322, 275.663727, 57.0, 20.0 ],
					"numinlets" : 2,
					"numoutlets" : 1,
					"fontsize" : 12.0
				}

			}
, 			{
				"box" : 				{
					"maxclass" : "newobj",
					"text" : "delay 500",
					"outlettype" : [ "bang" ],
					"id" : "obj-2",
					"fontname" : "Arial",
					"patching_rect" : [ 669.438477, 270.604767, 63.0, 20.0 ],
					"numinlets" : 2,
					"numoutlets" : 1,
					"fontsize" : 12.0
				}

			}
, 			{
				"box" : 				{
					"maxclass" : "newobj",
					"text" : "metro 100",
					"outlettype" : [ "bang" ],
					"id" : "obj-1",
					"fontname" : "Arial",
					"patching_rect" : [ 40.919254, 129.411591, 65.0, 20.0 ],
					"numinlets" : 2,
					"numoutlets" : 1,
					"fontsize" : 12.0
				}

			}
, 			{
				"box" : 				{
					"maxclass" : "panel",
					"bgcolor" : [ 1.0, 0.45098, 0.45098, 1.0 ],
					"id" : "obj-58",
					"patching_rect" : [ 609.950562, 6.850428, 394.253143, 128.673599 ],
					"numinlets" : 1,
					"numoutlets" : 0
				}

			}
, 			{
				"box" : 				{
					"maxclass" : "panel",
					"bgcolor" : [ 0.278431, 0.921569, 0.639216, 1.0 ],
					"id" : "obj-29",
					"patching_rect" : [ 371.0, 651.0, 150.0, 79.0 ],
					"numinlets" : 1,
					"numoutlets" : 0
				}

			}
, 			{
				"box" : 				{
					"maxclass" : "panel",
					"bgcolor" : [ 0.470588, 0.921569, 0.278431, 1.0 ],
					"id" : "obj-31",
					"presentation_rect" : [ 341.0, 469.0, 0.0, 0.0 ],
					"patching_rect" : [ 335.0, 448.0, 218.0, 215.0 ],
					"numinlets" : 1,
					"numoutlets" : 0
				}

			}
, 			{
				"box" : 				{
					"maxclass" : "panel",
					"bgcolor" : [ 0.921569, 0.662745, 0.278431, 1.0 ],
					"id" : "obj-53",
					"presentation_rect" : [ 631.0, 467.0, 0.0, 0.0 ],
					"patching_rect" : [ 574.0, 450.0, 218.0, 225.0 ],
					"numinlets" : 1,
					"numoutlets" : 0
				}

			}
, 			{
				"box" : 				{
					"maxclass" : "message",
					"text" : "stop",
					"outlettype" : [ "" ],
					"id" : "obj-59",
					"fontname" : "Arial",
					"patching_rect" : [ 822.143738, 541.966919, 50.0, 18.0 ],
					"numinlets" : 2,
					"numoutlets" : 1,
					"fontsize" : 12.0
				}

			}
, 			{
				"box" : 				{
					"maxclass" : "panel",
					"bgcolor" : [ 0.278431, 0.921569, 0.858824, 1.0 ],
					"id" : "obj-78",
					"presentation_rect" : [ 802.0, 428.0, 0.0, 0.0 ],
					"patching_rect" : [ 802.0, 428.0, 342.0, 273.0 ],
					"numinlets" : 1,
					"numoutlets" : 0
				}

			}
, 			{
				"box" : 				{
					"maxclass" : "panel",
					"bgcolor" : [ 1.0, 0.45098, 0.45098, 1.0 ],
					"id" : "obj-80",
					"presentation_rect" : [ 600.950562, 147.850433, 0.0, 0.0 ],
					"patching_rect" : [ 600.950562, 147.850433, 429.253143, 251.673599 ],
					"numinlets" : 1,
					"numoutlets" : 0
				}

			}
, 			{
				"box" : 				{
					"maxclass" : "panel",
					"bgcolor" : [ 0.470588, 0.921569, 0.278431, 1.0 ],
					"id" : "obj-109",
					"presentation_rect" : [ 36.0, 60.0, 0.0, 0.0 ],
					"patching_rect" : [ 36.0, 45.0, 191.0, 295.0 ],
					"numinlets" : 1,
					"numoutlets" : 0
				}

			}
, 			{
				"box" : 				{
					"maxclass" : "panel",
					"bgcolor" : [ 0.945098, 0.913725, 0.407843, 1.0 ],
					"id" : "obj-128",
					"presentation_rect" : [ 238.0, 35.0, 0.0, 0.0 ],
					"patching_rect" : [ 238.0, 35.0, 257.0, 408.0 ],
					"numinlets" : 1,
					"numoutlets" : 0
				}

			}
, 			{
				"box" : 				{
					"maxclass" : "panel",
					"bgcolor" : [ 1.0, 0.45098, 0.45098, 1.0 ],
					"id" : "obj-131",
					"presentation_rect" : [ 20.950562, 571.850403, 0.0, 0.0 ],
					"patching_rect" : [ 20.950562, 537.850403, 272.253143, 281.673584 ],
					"numinlets" : 1,
					"numoutlets" : 0
				}

			}
 ],
		"lines" : [ 			{
				"patchline" : 				{
					"source" : [ "obj-59", 0 ],
					"destination" : [ "obj-111", 0 ],
					"hidden" : 0,
					"midpoints" : [  ]
				}

			}
, 			{
				"patchline" : 				{
					"source" : [ "obj-125", 0 ],
					"destination" : [ "obj-122", 0 ],
					"hidden" : 0,
					"midpoints" : [ 915.435242, 566.0, 1002.0, 566.0, 1002.0, 440.0, 928.756226, 440.0 ]
				}

			}
, 			{
				"patchline" : 				{
					"source" : [ "obj-118", 0 ],
					"destination" : [ "obj-123", 1 ],
					"hidden" : 0,
					"midpoints" : [ 886.846802, 659.0, 987.0, 659.0, 987.0, 481.0, 948.17865, 481.0 ]
				}

			}
, 			{
				"patchline" : 				{
					"source" : [ "obj-111", 1 ],
					"destination" : [ "obj-118", 0 ],
					"hidden" : 0,
					"midpoints" : [  ]
				}

			}
, 			{
				"patchline" : 				{
					"source" : [ "obj-12", 0 ],
					"destination" : [ "obj-1", 0 ],
					"hidden" : 0,
					"midpoints" : [  ]
				}

			}
, 			{
				"patchline" : 				{
					"source" : [ "obj-1", 0 ],
					"destination" : [ "obj-14", 0 ],
					"hidden" : 0,
					"midpoints" : [  ]
				}

			}
, 			{
				"patchline" : 				{
					"source" : [ "obj-16", 0 ],
					"destination" : [ "obj-1", 1 ],
					"hidden" : 0,
					"midpoints" : [  ]
				}

			}
, 			{
				"patchline" : 				{
					"source" : [ "obj-23", 0 ],
					"destination" : [ "obj-22", 0 ],
					"hidden" : 0,
					"midpoints" : [  ]
				}

			}
, 			{
				"patchline" : 				{
					"source" : [ "obj-23", 1 ],
					"destination" : [ "obj-22", 1 ],
					"hidden" : 0,
					"midpoints" : [  ]
				}

			}
, 			{
				"patchline" : 				{
					"source" : [ "obj-14", 0 ],
					"destination" : [ "obj-25", 0 ],
					"hidden" : 0,
					"midpoints" : [  ]
				}

			}
, 			{
				"patchline" : 				{
					"source" : [ "obj-25", 0 ],
					"destination" : [ "obj-23", 0 ],
					"hidden" : 0,
					"midpoints" : [  ]
				}

			}
, 			{
				"patchline" : 				{
					"source" : [ "obj-14", 0 ],
					"destination" : [ "obj-17", 0 ],
					"hidden" : 0,
					"midpoints" : [  ]
				}

			}
, 			{
				"patchline" : 				{
					"source" : [ "obj-17", 0 ],
					"destination" : [ "obj-26", 0 ],
					"hidden" : 0,
					"midpoints" : [  ]
				}

			}
, 			{
				"patchline" : 				{
					"source" : [ "obj-26", 0 ],
					"destination" : [ "obj-21", 0 ],
					"hidden" : 0,
					"midpoints" : [  ]
				}

			}
, 			{
				"patchline" : 				{
					"source" : [ "obj-28", 0 ],
					"destination" : [ "obj-17", 1 ],
					"hidden" : 0,
					"midpoints" : [  ]
				}

			}
, 			{
				"patchline" : 				{
					"source" : [ "obj-21", 0 ],
					"destination" : [ "obj-16", 0 ],
					"hidden" : 0,
					"midpoints" : [ 63.896248, 318.103577, 184.177841, 318.103577, 184.177841, 94.909363, 96.746681, 94.909363 ]
				}

			}
, 			{
				"patchline" : 				{
					"source" : [ "obj-34", 0 ],
					"destination" : [ "obj-36", 0 ],
					"hidden" : 0,
					"midpoints" : [ 285.143921, 232.044617, 384.003052, 232.044617, 384.003052, 41.754337, 338.571869, 41.754337 ]
				}

			}
, 			{
				"patchline" : 				{
					"source" : [ "obj-36", 0 ],
					"destination" : [ "obj-39", 1 ],
					"hidden" : 0,
					"midpoints" : [  ]
				}

			}
, 			{
				"patchline" : 				{
					"source" : [ "obj-39", 0 ],
					"destination" : [ "obj-37", 0 ],
					"hidden" : 0,
					"midpoints" : [  ]
				}

			}
, 			{
				"patchline" : 				{
					"source" : [ "obj-38", 0 ],
					"destination" : [ "obj-39", 0 ],
					"hidden" : 0,
					"midpoints" : [  ]
				}

			}
, 			{
				"patchline" : 				{
					"source" : [ "obj-35", 0 ],
					"destination" : [ "obj-34", 0 ],
					"hidden" : 0,
					"midpoints" : [  ]
				}

			}
, 			{
				"patchline" : 				{
					"source" : [ "obj-37", 0 ],
					"destination" : [ "obj-35", 0 ],
					"hidden" : 0,
					"midpoints" : [  ]
				}

			}
, 			{
				"patchline" : 				{
					"source" : [ "obj-32", 0 ],
					"destination" : [ "obj-35", 1 ],
					"hidden" : 0,
					"midpoints" : [  ]
				}

			}
, 			{
				"patchline" : 				{
					"source" : [ "obj-34", 0 ],
					"destination" : [ "obj-40", 0 ],
					"hidden" : 0,
					"midpoints" : [  ]
				}

			}
, 			{
				"patchline" : 				{
					"source" : [ "obj-41", 0 ],
					"destination" : [ "obj-23", 0 ],
					"hidden" : 0,
					"midpoints" : [  ]
				}

			}
, 			{
				"patchline" : 				{
					"source" : [ "obj-42", 0 ],
					"destination" : [ "obj-23", 0 ],
					"hidden" : 0,
					"midpoints" : [  ]
				}

			}
, 			{
				"patchline" : 				{
					"source" : [ "obj-45", 0 ],
					"destination" : [ "obj-43", 0 ],
					"hidden" : 0,
					"midpoints" : [  ]
				}

			}
, 			{
				"patchline" : 				{
					"source" : [ "obj-43", 0 ],
					"destination" : [ "obj-23", 0 ],
					"hidden" : 0,
					"midpoints" : [  ]
				}

			}
, 			{
				"patchline" : 				{
					"source" : [ "obj-40", 0 ],
					"destination" : [ "obj-46", 0 ],
					"hidden" : 0,
					"midpoints" : [  ]
				}

			}
, 			{
				"patchline" : 				{
					"source" : [ "obj-46", 0 ],
					"destination" : [ "obj-23", 0 ],
					"hidden" : 0,
					"midpoints" : [  ]
				}

			}
, 			{
				"patchline" : 				{
					"source" : [ "obj-46", 0 ],
					"destination" : [ "obj-47", 1 ],
					"hidden" : 0,
					"midpoints" : [  ]
				}

			}
, 			{
				"patchline" : 				{
					"source" : [ "obj-9", 0 ],
					"destination" : [ "obj-49", 0 ],
					"hidden" : 0,
					"midpoints" : [  ]
				}

			}
, 			{
				"patchline" : 				{
					"source" : [ "obj-9", 0 ],
					"destination" : [ "obj-51", 0 ],
					"hidden" : 0,
					"midpoints" : [  ]
				}

			}
, 			{
				"patchline" : 				{
					"source" : [ "obj-9", 0 ],
					"destination" : [ "obj-54", 0 ],
					"hidden" : 0,
					"midpoints" : [  ]
				}

			}
, 			{
				"patchline" : 				{
					"source" : [ "obj-54", 0 ],
					"destination" : [ "obj-52", 0 ],
					"hidden" : 0,
					"midpoints" : [  ]
				}

			}
, 			{
				"patchline" : 				{
					"source" : [ "obj-10", 0 ],
					"destination" : [ "obj-55", 0 ],
					"hidden" : 0,
					"midpoints" : [  ]
				}

			}
, 			{
				"patchline" : 				{
					"source" : [ "obj-56", 0 ],
					"destination" : [ "obj-57", 0 ],
					"hidden" : 0,
					"midpoints" : [  ]
				}

			}
, 			{
				"patchline" : 				{
					"source" : [ "obj-66", 0 ],
					"destination" : [ "obj-64", 0 ],
					"hidden" : 0,
					"midpoints" : [  ]
				}

			}
, 			{
				"patchline" : 				{
					"source" : [ "obj-64", 0 ],
					"destination" : [ "obj-2", 0 ],
					"hidden" : 0,
					"midpoints" : [  ]
				}

			}
, 			{
				"patchline" : 				{
					"source" : [ "obj-2", 0 ],
					"destination" : [ "obj-62", 0 ],
					"hidden" : 0,
					"midpoints" : [  ]
				}

			}
, 			{
				"patchline" : 				{
					"source" : [ "obj-68", 0 ],
					"destination" : [ "obj-3", 0 ],
					"hidden" : 0,
					"midpoints" : [  ]
				}

			}
, 			{
				"patchline" : 				{
					"source" : [ "obj-3", 0 ],
					"destination" : [ "obj-69", 0 ],
					"hidden" : 0,
					"midpoints" : [  ]
				}

			}
, 			{
				"patchline" : 				{
					"source" : [ "obj-71", 0 ],
					"destination" : [ "obj-70", 1 ],
					"hidden" : 0,
					"midpoints" : [  ]
				}

			}
, 			{
				"patchline" : 				{
					"source" : [ "obj-62", 0 ],
					"destination" : [ "obj-70", 0 ],
					"hidden" : 0,
					"midpoints" : [  ]
				}

			}
, 			{
				"patchline" : 				{
					"source" : [ "obj-71", 0 ],
					"destination" : [ "obj-64", 0 ],
					"hidden" : 0,
					"midpoints" : [  ]
				}

			}
, 			{
				"patchline" : 				{
					"source" : [ "obj-70", 0 ],
					"destination" : [ "obj-72", 0 ],
					"hidden" : 0,
					"midpoints" : [  ]
				}

			}
, 			{
				"patchline" : 				{
					"source" : [ "obj-75", 0 ],
					"destination" : [ "obj-73", 0 ],
					"hidden" : 0,
					"midpoints" : [  ]
				}

			}
, 			{
				"patchline" : 				{
					"source" : [ "obj-73", 0 ],
					"destination" : [ "obj-64", 0 ],
					"hidden" : 0,
					"midpoints" : [  ]
				}

			}
, 			{
				"patchline" : 				{
					"source" : [ "obj-76", 0 ],
					"destination" : [ "obj-77", 0 ],
					"hidden" : 0,
					"midpoints" : [  ]
				}

			}
, 			{
				"patchline" : 				{
					"source" : [ "obj-77", 0 ],
					"destination" : [ "obj-68", 0 ],
					"hidden" : 0,
					"midpoints" : [  ]
				}

			}
, 			{
				"patchline" : 				{
					"source" : [ "obj-3", 0 ],
					"destination" : [ "obj-79", 0 ],
					"hidden" : 0,
					"midpoints" : [  ]
				}

			}
, 			{
				"patchline" : 				{
					"source" : [ "obj-83", 0 ],
					"destination" : [ "obj-84", 0 ],
					"hidden" : 0,
					"midpoints" : [  ]
				}

			}
, 			{
				"patchline" : 				{
					"source" : [ "obj-84", 0 ],
					"destination" : [ "obj-85", 0 ],
					"hidden" : 0,
					"midpoints" : [  ]
				}

			}
, 			{
				"patchline" : 				{
					"source" : [ "obj-6", 0 ],
					"destination" : [ "obj-83", 0 ],
					"hidden" : 0,
					"midpoints" : [  ]
				}

			}
, 			{
				"patchline" : 				{
					"source" : [ "obj-81", 0 ],
					"destination" : [ "obj-6", 0 ],
					"hidden" : 0,
					"midpoints" : [  ]
				}

			}
, 			{
				"patchline" : 				{
					"source" : [ "obj-83", 0 ],
					"destination" : [ "obj-86", 0 ],
					"hidden" : 0,
					"midpoints" : [  ]
				}

			}
, 			{
				"patchline" : 				{
					"source" : [ "obj-86", 0 ],
					"destination" : [ "obj-87", 0 ],
					"hidden" : 0,
					"midpoints" : [  ]
				}

			}
, 			{
				"patchline" : 				{
					"source" : [ "obj-87", 0 ],
					"destination" : [ "obj-88", 0 ],
					"hidden" : 0,
					"midpoints" : [  ]
				}

			}
, 			{
				"patchline" : 				{
					"source" : [ "obj-88", 0 ],
					"destination" : [ "obj-89", 0 ],
					"hidden" : 0,
					"midpoints" : [  ]
				}

			}
, 			{
				"patchline" : 				{
					"source" : [ "obj-5", 0 ],
					"destination" : [ "obj-91", 0 ],
					"hidden" : 0,
					"midpoints" : [  ]
				}

			}
, 			{
				"patchline" : 				{
					"source" : [ "obj-93", 0 ],
					"destination" : [ "obj-5", 1 ],
					"hidden" : 0,
					"midpoints" : [  ]
				}

			}
, 			{
				"patchline" : 				{
					"source" : [ "obj-95", 0 ],
					"destination" : [ "obj-5", 0 ],
					"hidden" : 0,
					"midpoints" : [  ]
				}

			}
, 			{
				"patchline" : 				{
					"source" : [ "obj-96", 0 ],
					"destination" : [ "obj-99", 0 ],
					"hidden" : 0,
					"midpoints" : [  ]
				}

			}
, 			{
				"patchline" : 				{
					"source" : [ "obj-99", 0 ],
					"destination" : [ "obj-98", 0 ],
					"hidden" : 0,
					"midpoints" : [  ]
				}

			}
, 			{
				"patchline" : 				{
					"source" : [ "obj-101", 0 ],
					"destination" : [ "obj-99", 1 ],
					"hidden" : 0,
					"midpoints" : [  ]
				}

			}
, 			{
				"patchline" : 				{
					"source" : [ "obj-96", 0 ],
					"destination" : [ "obj-101", 0 ],
					"hidden" : 0,
					"midpoints" : [  ]
				}

			}
, 			{
				"patchline" : 				{
					"source" : [ "obj-102", 0 ],
					"destination" : [ "obj-103", 0 ],
					"hidden" : 0,
					"midpoints" : [  ]
				}

			}
, 			{
				"patchline" : 				{
					"source" : [ "obj-103", 0 ],
					"destination" : [ "obj-99", 1 ],
					"hidden" : 0,
					"midpoints" : [  ]
				}

			}
, 			{
				"patchline" : 				{
					"source" : [ "obj-104", 0 ],
					"destination" : [ "obj-99", 0 ],
					"hidden" : 0,
					"midpoints" : [  ]
				}

			}
, 			{
				"patchline" : 				{
					"source" : [ "obj-106", 0 ],
					"destination" : [ "obj-102", 0 ],
					"hidden" : 0,
					"midpoints" : [  ]
				}

			}
, 			{
				"patchline" : 				{
					"source" : [ "obj-104", 0 ],
					"destination" : [ "obj-106", 0 ],
					"hidden" : 0,
					"midpoints" : [  ]
				}

			}
, 			{
				"patchline" : 				{
					"source" : [ "obj-108", 0 ],
					"destination" : [ "obj-5", 0 ],
					"hidden" : 0,
					"midpoints" : [  ]
				}

			}
, 			{
				"patchline" : 				{
					"source" : [ "obj-111", 0 ],
					"destination" : [ "obj-110", 0 ],
					"hidden" : 0,
					"midpoints" : [  ]
				}

			}
, 			{
				"patchline" : 				{
					"source" : [ "obj-91", 0 ],
					"destination" : [ "obj-114", 0 ],
					"hidden" : 0,
					"midpoints" : [  ]
				}

			}
, 			{
				"patchline" : 				{
					"source" : [ "obj-114", 0 ],
					"destination" : [ "obj-116", 0 ],
					"hidden" : 0,
					"midpoints" : [  ]
				}

			}
, 			{
				"patchline" : 				{
					"source" : [ "obj-113", 0 ],
					"destination" : [ "obj-111", 0 ],
					"hidden" : 0,
					"midpoints" : [  ]
				}

			}
, 			{
				"patchline" : 				{
					"source" : [ "obj-119", 0 ],
					"destination" : [ "obj-111", 0 ],
					"hidden" : 0,
					"midpoints" : [  ]
				}

			}
, 			{
				"patchline" : 				{
					"source" : [ "obj-123", 0 ],
					"destination" : [ "obj-113", 0 ],
					"hidden" : 0,
					"midpoints" : [  ]
				}

			}
, 			{
				"patchline" : 				{
					"source" : [ "obj-123", 1 ],
					"destination" : [ "obj-119", 0 ],
					"hidden" : 0,
					"midpoints" : [  ]
				}

			}
, 			{
				"patchline" : 				{
					"source" : [ "obj-122", 0 ],
					"destination" : [ "obj-123", 0 ],
					"hidden" : 0,
					"midpoints" : [  ]
				}

			}
, 			{
				"patchline" : 				{
					"source" : [ "obj-123", 0 ],
					"destination" : [ "obj-125", 0 ],
					"hidden" : 0,
					"midpoints" : [  ]
				}

			}
, 			{
				"patchline" : 				{
					"source" : [ "obj-123", 1 ],
					"destination" : [ "obj-126", 0 ],
					"hidden" : 0,
					"midpoints" : [  ]
				}

			}
, 			{
				"patchline" : 				{
					"source" : [ "obj-126", 0 ],
					"destination" : [ "obj-122", 0 ],
					"hidden" : 0,
					"midpoints" : [ 954.874023, 560.212585, 998.764832, 560.212585, 998.764832, 449.324005, 928.756226, 449.324005 ]
				}

			}
 ]
	}

}
